<?xml version="1.0" encoding="UTF-8" standalone="no"?>
<svg width="134px" height="30px" viewBox="0 0 134 30" version="1.1" xmlns="http://www.w3.org/2000/svg" xmlns:xlink="http://www.w3.org/1999/xlink">
    <!-- Generator: Sketch 39.1 (31720) - http://www.bohemiancoding.com/sketch -->
    <title>logo-site-blindado</title>
    <desc>Created with Sketch.</desc>
    <defs>
        <radialGradient cx="99.9795418%" cy="100.694344%" fx="99.9795418%" fy="100.694344%" r="113.554583%" id="radialGradient-1">
            <stop stop-color="#00F600" offset="0%"></stop>
            <stop stop-color="#00CB00" offset="77.3%"></stop>
            <stop stop-color="#00CB00" offset="100%"></stop>
        </radialGradient>
        <radialGradient cx="0.214151188%" cy="99.1243354%" fx="0.214151188%" fy="99.1243354%" r="99.7432771%" id="radialGradient-2">
            <stop stop-color="#00CB00" offset="0%"></stop>
            <stop stop-color="#009800" offset="90.8%"></stop>
            <stop stop-color="#009800" offset="100%"></stop>
        </radialGradient>
        <radialGradient cx="100.514027%" cy="-0.428391167%" fx="100.514027%" fy="-0.428391167%" r="100.845249%" id="radialGradient-3">
            <stop stop-color="#00CB00" offset="0%"></stop>
            <stop stop-color="#009800" offset="90.8%"></stop>
            <stop stop-color="#009800" offset="100%"></stop>
        </radialGradient>
        <radialGradient cx="-0.509070295%" cy="-0.428391167%" fx="-0.509070295%" fy="-0.428391167%" r="101.258503%" id="radialGradient-4">
            <stop stop-color="#00F600" offset="0%"></stop>
            <stop stop-color="#00CB00" offset="77.3%"></stop>
            <stop stop-color="#00CB00" offset="100%"></stop>
        </radialGradient>
    </defs>
    <g id="Symbols" stroke="none" stroke-width="1" fill="none" fill-rule="evenodd">
        <g id="logo-site-blindado">
            <g id="Layer_1">
                <g>
                    <g id="Group">
                        <path d="M133.247788,22.380531 C133.247788,24.0265487 131.389381,25.6725664 129.504425,25.6725664 L3.71681416,25.6725664 C1.85840708,25.6725664 0,24.0265487 0,22.380531 L0,7.51327434 C0,5.86725664 1.85840708,4.22123894 3.69026549,4.22123894 L129.530973,4.22123894 C131.389381,4.22123894 133.221239,5.86725664 133.221239,7.51327434 L133.221239,22.380531 L133.247788,22.380531 Z" id="Shape" fill="#010101"></path>
                        <g transform="translate(4.778761, 0.000000)" id="Shape">
                            <g>
                                <path d="M18.7699115,23.0442478 C21.6371681,19.380531 24.6902655,13.1415929 23.0442478,4.3539823 L23.0442478,4.32743363 L23.0176991,4.32743363 C22.9646018,4.30088496 18.9823009,1.99115044 12.0530973,0.902654867 C5.15044248,1.96460177 1.14159292,4.30088496 1.11504425,4.32743363 L1.08849558,4.32743363 L1.08849558,4.3539823 C-0.530973451,13.1415929 2.54867257,19.3539823 5.4159292,23.0442478 C8.52212389,27.0265487 12.0530973,28.9646018 12.079646,28.9646018 L12.1061947,28.9646018 L12.1327434,28.9646018 C12.1327434,28.9380531 15.6902655,27.0265487 18.7699115,23.0442478 L18.7699115,23.0442478 Z" fill="#00CB00"></path>
                                <g>
                                    <path d="M0.530973451,3.69026549 C-0.10619469,7.08849558 -0.0796460177,10.1415929 0.345132743,12.8495575 C0.398230088,13.1415929 0.371681416,13.0088496 0.371681416,13.0088496 L12.1061947,13.0088496 L12.1061947,0.0265486726 C4.69911504,1.19469027 0.530973451,3.69026549 0.530973451,3.69026549 L0.530973451,3.69026549 Z" fill="url(#radialGradient-1)"></path>
                                    <path d="M23.6548673,3.69026549 C24.2920354,7.16814159 24.2654867,10.2477876 23.7876106,13.0088496 L12.0530973,13.0088496 L12.0530973,0.0265486726 C19.4867257,1.19469027 23.6548673,3.69026549 23.6548673,3.69026549 L23.6548673,3.69026549 Z" fill="url(#radialGradient-2)"></path>
                                    <path d="M12.1061947,29.840708 L12.1061947,13.0088496 L0.371681416,13.0088496 C2.17699115,24.3716814 12.1061947,29.840708 12.1061947,29.840708 L12.1061947,29.840708 Z" fill="url(#radialGradient-3)"></path>
                                    <path d="M23.0176991,16.2743363 C23.0176991,16.2743363 23.6814159,13.8849558 23.8141593,13.0088496 L12.1061947,13.0088496 L12.1061947,29.840708 C12.1061947,29.840708 19.9911504,25.539823 23.0176991,16.2743363 L23.0176991,16.2743363 Z" fill="url(#radialGradient-4)"></path>
                                </g>
                            </g>
                            <g transform="translate(28.672566, 8.761062)" fill="#FFFFFF">
                                <path d="M0.424778761,9.69026549 C0.92920354,9.95575221 1.77876106,10.1415929 2.49557522,10.1415929 C3.66371681,10.1415929 4.22123894,9.5840708 4.22123894,8.84070796 C4.22123894,7.99115044 3.66371681,7.59292035 2.60176991,6.95575221 C0.876106195,6 0.212389381,4.75221239 0.212389381,3.71681416 C0.212389381,1.85840708 1.56637168,0.292035398 4.19469027,0.292035398 C5.01769912,0.292035398 5.81415929,0.504424779 6.18584071,0.716814159 L5.78761062,2.65486726 C5.44247788,2.44247788 4.88495575,2.25663717 4.16814159,2.25663717 C3.13274336,2.25663717 2.60176991,2.84070796 2.60176991,3.47787611 C2.60176991,4.16814159 2.97345133,4.53982301 4.3539823,5.28318584 C6.02654867,6.21238938 6.63716814,7.38053097 6.63716814,8.60176991 C6.63716814,10.7256637 4.9380531,12.1327434 2.46902655,12.1327434 C1.46017699,12.1327434 0.477876106,11.8938053 0.0530973451,11.6548673 L0.424778761,9.69026549 L0.424778761,9.69026549 Z"></path>
                                <polygon points="10.539823 0.371681416 10.539823 12 8.09734513 12 8.09734513 0.371681416"></polygon>
                                <polygon points="14.0973451 2.44247788 11.8672566 2.44247788 11.8672566 0.345132743 18.7964602 0.345132743 18.7964602 2.44247788 16.539823 2.44247788 16.539823 11.9734513 14.0973451 11.9734513"></polygon>
                                <polygon points="25.4070796 6.87610619 22.5132743 6.87610619 22.5132743 10.0088496 25.7787611 10.0088496 25.7787611 11.9734513 20.0707965 11.9734513 20.0707965 0.371681416 25.5663717 0.371681416 25.5663717 2.33628319 22.539823 2.33628319 22.539823 5.01769912 25.4336283 5.01769912 25.4336283 6.87610619"></polygon>
                                <path d="M30.4247788,0.530973451 C31.1681416,0.371681416 32.1504425,0.318584071 33.2123894,0.318584071 C34.380531,0.318584071 35.5221239,0.451327434 36.4247788,1.14159292 C37.0884956,1.6460177 37.380531,2.44247788 37.380531,3.23893805 C37.380531,4.27433628 36.7964602,5.28318584 35.5486726,5.78761062 L35.5486726,5.84070796 C37.0088496,6.21238938 37.8053097,7.3539823 37.8053097,8.62831858 C37.8053097,9.5840708 37.460177,10.3274336 36.8761062,10.9115044 C36.1327434,11.6814159 34.8584071,12.079646 32.7345133,12.079646 C31.8053097,12.079646 31.0088496,12.0265487 30.4513274,11.9469027 L30.4513274,0.530973451 L30.4247788,0.530973451 Z M32.8938053,5.15044248 L33.4247788,5.15044248 C34.300885,5.15044248 34.9911504,4.46017699 34.9911504,3.50442478 C34.9911504,2.65486726 34.5663717,1.99115044 33.5575221,1.99115044 C33.2920354,1.99115044 33.079646,2.01769912 32.920354,2.07079646 L32.920354,5.15044248 L32.8938053,5.15044248 Z M32.8938053,10.300885 C33.0530973,10.3274336 33.2123894,10.3274336 33.4247788,10.3274336 C34.4070796,10.3274336 35.2300885,9.7699115 35.2300885,8.57522124 C35.2300885,7.40707965 34.380531,6.82300885 33.3982301,6.79646018 L32.8672566,6.79646018 L32.8672566,10.300885 L32.8938053,10.300885 Z"></path>
                                <polygon points="39.4778761 0.371681416 41.920354 0.371681416 41.920354 10.0884956 45.159292 10.0884956 45.159292 12 39.4778761 12"></polygon>
                                <polygon points="49.0353982 0.371681416 49.0353982 12 46.5929204 12 46.5929204 0.371681416"></polygon>
                                <path d="M51.2389381,12 L51.2389381,0.371681416 L53.4955752,0.371681416 L55.4336283,4.9380531 C55.8053097,5.84070796 56.4159292,7.32743363 56.7876106,8.33628319 L56.8141593,8.33628319 C56.7345133,7.11504425 56.5752212,5.09734513 56.5752212,2.94690265 L56.5752212,0.371681416 L58.7256637,0.371681416 L58.7256637,12 L56.4690265,12 L54.5309735,7.59292035 C54.1061947,6.61061947 53.5486726,5.15044248 53.2566372,4.08849558 L53.2300885,4.08849558 C53.2831858,5.25663717 53.3893805,7.0619469 53.3893805,9.39823009 L53.3893805,12.0265487 L51.2389381,12.0265487 L51.2389381,12 Z"></path>
                                <path d="M60.8761062,0.530973451 C61.4867257,0.398230088 62.3893805,0.318584071 63.3716814,0.318584071 C64.9646018,0.318584071 66.079646,0.663716814 66.8761062,1.3539823 C67.9646018,2.25663717 68.5221239,3.79646018 68.5221239,6.05309735 C68.5221239,8.38938053 67.8584071,10.0619469 66.7699115,10.9646018 C65.920354,11.7345133 64.6725664,12.079646 62.920354,12.079646 C62.1504425,12.079646 61.380531,12 60.9026549,11.9469027 L60.9026549,0.530973451 L60.8761062,0.530973451 Z M63.3451327,10.1946903 C63.4513274,10.2212389 63.6371681,10.2212389 63.7699115,10.2212389 C64.9380531,10.2212389 65.9734513,9.15929204 65.9734513,5.94690265 C65.9734513,3.55752212 65.3097345,2.12389381 63.8230088,2.12389381 C63.6637168,2.12389381 63.4778761,2.12389381 63.3451327,2.17699115 L63.3451327,10.1946903 L63.3451327,10.1946903 Z"></path>
                                <path d="M71.7876106,9.34513274 L71.2300885,12 L68.840708,12 L71.5752212,0.371681416 L74.5221239,0.371681416 L76.9646018,12 L74.5752212,12 L74.0442478,9.34513274 L71.7876106,9.34513274 L71.7876106,9.34513274 Z M73.8318584,7.56637168 L73.4070796,5.12389381 C73.2743363,4.40707965 73.1150442,3.26548673 72.9823009,2.49557522 L72.9292035,2.49557522 C72.7964602,3.26548673 72.6106195,4.48672566 72.4778761,5.15044248 L72,7.56637168 L73.8318584,7.56637168 L73.8318584,7.56637168 Z"></path>
                                <path d="M78.3451327,0.530973451 C78.9557522,0.398230088 79.8584071,0.318584071 80.840708,0.318584071 C82.4336283,0.318584071 83.5486726,0.663716814 84.3451327,1.3539823 C85.4336283,2.25663717 85.9911504,3.79646018 85.9911504,6.05309735 C85.9911504,8.38938053 85.3274336,10.0619469 84.2389381,10.9646018 C83.3893805,11.7345133 82.1415929,12.079646 80.3893805,12.079646 C79.619469,12.079646 78.8495575,12 78.3716814,11.9469027 L78.3716814,0.530973451 L78.3451327,0.530973451 Z M80.8141593,10.1946903 C80.920354,10.2212389 81.1061947,10.2212389 81.2389381,10.2212389 C82.4070796,10.2212389 83.4424779,9.15929204 83.4424779,5.94690265 C83.4424779,3.55752212 82.7787611,2.12389381 81.2920354,2.12389381 C81.1327434,2.12389381 80.9469027,2.12389381 80.8141593,2.17699115 L80.8141593,10.1946903 L80.8141593,10.1946903 Z"></path>
                                <path d="M94.9911504,5.97345133 C94.9911504,10.3539823 93.3185841,12.1327434 90.9026549,12.1327434 C88.0353982,12.1327434 86.920354,9.34513274 86.920354,6.13274336 C86.920354,2.94690265 88.2743363,0.212389381 91.0884956,0.212389381 C94.1415929,0.238938053 94.9911504,3.31858407 94.9911504,5.97345133 L94.9911504,5.97345133 Z M89.4690265,6.18584071 C89.4690265,8.81415929 90,10.1681416 91.0088496,10.1681416 C92.0442478,10.1681416 92.4424779,8.44247788 92.4424779,6.07964602 C92.4424779,4.03539823 92.0973451,2.20353982 91.0088496,2.20353982 C90.0265487,2.20353982 89.4690265,3.69026549 89.4690265,6.18584071 L89.4690265,6.18584071 Z"></path>
                            </g>
                        </g>
                    </g>
                </g>
            </g>
        </g>
    </g>
</svg>