<svg width="147" height="31" viewBox="0 0 147 31" fill="none" xmlns="http://www.w3.org/2000/svg">
<path d="M122.6 1.5C119.936 1.5 117.68 2.46 115.832 4.332C113.96 6.204 113 8.46 113 11.1C113 13.764 113.96 15.996 115.832 17.868C117.704 19.74 119.936 20.7 122.6 20.7C125.264 20.7 127.496 19.74 129.368 17.868C131.264 16.02 132.224 13.764 132.224 11.1C132.224 8.46 131.264 6.204 129.368 4.332C127.496 2.46 125.264 1.5 122.6 1.5ZM122.6 4.716C124.352 4.716 125.864 5.34 127.112 6.588C128.36 7.836 128.984 9.348 128.984 11.1C128.984 12.852 128.384 14.364 127.112 15.636C125.864 16.884 124.352 17.484 122.6 17.484C120.848 17.484 119.312 16.884 118.064 15.636C116.816 14.388 116.216 12.852 116.216 11.1C116.216 9.348 116.816 7.836 118.064 6.588C119.336 5.316 120.848 4.716 122.6 4.716Z" fill="white"/>
<path d="M38 20.436V20.7H50.792V17.484H41.192L38 20.436ZM38 1.5L41.192 4.716H50.792V1.5H38ZM38 9.516V12.708H41.192H50.792V9.516H41.192H38Z" fill="white"/>
<path d="M32.68 11.508C33.448 10.428 33.808 9.228 33.808 7.884C33.808 6.132 33.184 4.644 31.936 3.372C30.688 2.124 29.176 1.5 27.424 1.5H19L20.656 4.356L21.016 4.716H27.424C28.288 4.716 29.032 5.028 29.656 5.652C30.304 6.276 30.616 7.02 30.616 7.884C30.616 8.772 30.304 9.54 29.656 10.164C29.032 10.788 28.288 11.1 27.424 11.1L24.568 11.076L30.136 20.7H33.808L29.872 13.812C31 13.356 31.936 12.588 32.68 11.508Z" fill="white"/>
<path d="M145.68 11.508C146.448 10.428 146.808 9.228 146.808 7.884C146.808 6.132 146.184 4.644 144.936 3.372C143.688 2.124 142.176 1.5 140.424 1.5H132L133.656 4.356L134.016 4.716H140.424C141.288 4.716 142.032 5.028 142.656 5.652C143.304 6.276 143.616 7.02 143.616 7.884C143.616 8.772 143.304 9.54 142.656 10.164C142.032 10.788 141.288 11.1 140.424 11.1L137.568 11.076L143.136 20.7H146.808L142.872 13.812C144 13.356 144.936 12.588 145.68 11.508Z" fill="white"/>
<path d="M14.1261 3.3525C12.8769 2.1175 11.3634 1.5 9.60961 1.5H0L3.1952 4.6825H9.60961C10.4745 4.6825 11.2192 4.99125 11.8438 5.60875C12.4925 6.22625 12.8048 6.98625 12.8048 7.84125C12.8048 8.72 12.4685 9.45625 11.8438 10.0737C11.2192 10.6912 10.4745 11 9.60961 11H3.1952H0V20.5H3.1952V14.1825H9.60961C11.3634 14.1825 12.8769 13.565 14.1261 12.33C15.3994 11.095 16 9.575 16 7.84125C16 6.1075 15.3754 4.61125 14.1261 3.3525Z" fill="white"/>
<path d="M55.9775 20.5V1.30469H61.8837C63.5712 1.30469 65.0786 1.68701 66.4057 2.45166C67.7417 3.20752 68.7832 4.28857 69.5302 5.69482C70.2773 7.09229 70.6508 8.68311 70.6508 10.4673V11.3506C70.6508 13.1348 70.2817 14.7212 69.5434 16.1099C68.8139 17.4985 67.7812 18.5752 66.4453 19.3398C65.1093 20.1045 63.602 20.4912 61.9233 20.5H55.9775ZM59.9326 4.5083V17.3228H61.8442C63.3911 17.3228 64.5732 16.8174 65.3906 15.8066C66.208 14.7959 66.6254 13.3501 66.643 11.4692V10.4541C66.643 8.50293 66.2387 7.02637 65.4301 6.02441C64.6215 5.01367 63.4394 4.5083 61.8837 4.5083H59.9326ZM95.8689 20.5V1.30469H101.775C103.463 1.30469 104.97 1.68701 106.297 2.45166C107.633 3.20752 108.675 4.28857 109.422 5.69482C110.169 7.09229 110.542 8.68311 110.542 10.4673V11.3506C110.542 13.1348 110.173 14.7212 109.435 16.1099C108.705 17.4985 107.673 18.5752 106.337 19.3398C105.001 20.1045 103.493 20.4912 101.815 20.5H95.8689ZM99.824 4.5083V17.3228H101.736C103.283 17.3228 104.465 16.8174 105.282 15.8066C106.099 14.7959 106.517 13.3501 106.534 11.4692V10.4541C106.534 8.50293 106.13 7.02637 105.322 6.02441C104.513 5.01367 103.331 4.5083 101.775 4.5083H99.824Z" fill="white"/>
<rect x="55" y="5.5" width="5" height="11" fill="black"/>
<path d="M60.5 5L55.5 1L54.5 7.5L59.5 7L60.5 5Z" fill="black" stroke="black"/>
<rect x="94" y="5.5" width="8" height="11" fill="black"/>
<path d="M83.2591 5.47842L80.6304 1.10944L74.5641 20.8167L79.2098 18.633L83.2591 5.47842Z" fill="white"/>
<path d="M84.5327 5.49899L87.1382 1.11609L93.3093 20.7908L88.6519 18.6319L84.5327 5.49899Z" fill="white"/>
<path d="M55.5 21L60.5 17L61 16.5L57 15.5L54 16.5L55.5 21Z" fill="black" stroke="black"/>
<path d="M95.5 1L100.5 5V7L94.5 5.5L95.5 1Z" fill="black" stroke="black"/>
<path d="M95.5 21L100.5 17V15.5H94L95.5 21Z" fill="black" stroke="black"/>
<path d="M0.578125 30.5V24.8125H2.25781C2.76042 24.8125 3.20573 24.9245 3.59375 25.1484C3.98438 25.3724 4.28646 25.6901 4.5 26.1016C4.71354 26.513 4.82031 26.9844 4.82031 27.5156V27.8008C4.82031 28.3398 4.71224 28.8138 4.49609 29.2227C4.28255 29.6315 3.97656 29.9466 3.57812 30.168C3.18229 30.3893 2.72786 30.5 2.21484 30.5H0.578125ZM1.56641 25.6094V29.7109H2.21094C2.72917 29.7109 3.1263 29.5495 3.40234 29.2266C3.68099 28.901 3.82292 28.4349 3.82812 27.8281V27.5117C3.82812 26.8945 3.69401 26.4232 3.42578 26.0977C3.15755 25.7721 2.76823 25.6094 2.25781 25.6094H1.56641ZM26.4877 30.5H25.5033V24.8125H26.4877V30.5ZM51.7019 29.7617C51.4961 30.0299 51.211 30.2331 50.8464 30.3711C50.4818 30.5091 50.0678 30.5781 49.6042 30.5781C49.1277 30.5781 48.7058 30.4701 48.3386 30.2539C47.9714 30.0378 47.6876 29.7292 47.487 29.3281C47.2891 28.9245 47.1862 28.4544 47.1784 27.918V27.4727C47.1784 26.6133 47.3842 25.9427 47.7956 25.4609C48.2071 24.9766 48.7813 24.7344 49.5183 24.7344C50.1511 24.7344 50.6537 24.8906 51.0261 25.2031C51.3985 25.5156 51.6224 25.9661 51.698 26.5547H50.7292C50.6198 25.8698 50.2227 25.5273 49.5378 25.5273C49.0951 25.5273 48.7579 25.6875 48.5261 26.0078C48.2969 26.3255 48.1784 26.793 48.1706 27.4102V27.8477C48.1706 28.4622 48.2995 28.9401 48.5573 29.2812C48.8178 29.6198 49.1784 29.7891 49.6394 29.7891C50.1446 29.7891 50.504 29.6745 50.7175 29.4453V28.332H49.5456V27.582H51.7019V29.7617ZM73.4708 30.5H72.4864V24.8125H73.4708V30.5ZM98.3178 25.6094H96.5444V30.5H95.5639V25.6094H93.8061V24.8125H98.3178V25.6094ZM121.423 29.1758H119.22L118.759 30.5H117.731L119.88 24.8125H120.766L122.919 30.5H121.887L121.423 29.1758ZM119.497 28.3789H121.145L120.321 26.0195L119.497 28.3789ZM144.195 29.7109H146.777V30.5H143.207V24.8125H144.195V29.7109Z" fill="#00FF57"/>
</svg>
