<svg width="78" height="29" viewBox="0 0 78 29" fill="none" xmlns="http://www.w3.org/2000/svg">
<path d="M30.472 1.13V6.856C30.472 7.388 30.5933 7.79867 30.836 8.088C31.088 8.37733 31.466 8.522 31.97 8.522C32.474 8.522 32.852 8.37733 33.104 8.088C33.3653 7.78933 33.496 7.37867 33.496 6.856V1.13H36.24V6.856C36.24 7.76133 36.0487 8.536 35.666 9.18C35.2833 9.81467 34.7607 10.2953 34.098 10.622C33.4447 10.9393 32.7167 11.098 31.914 11.098C31.1113 11.098 30.3927 10.9393 29.758 10.622C29.1327 10.2953 28.638 9.81467 28.274 9.18C27.9193 8.54533 27.742 7.77067 27.742 6.856V1.13H30.472ZM42.4548 11.098C41.3068 11.098 40.3641 10.8273 39.6268 10.286C38.8895 9.73533 38.4928 8.95133 38.4368 7.934H41.3628C41.3908 8.27933 41.4935 8.53133 41.6708 8.69C41.8481 8.84867 42.0768 8.928 42.3568 8.928C42.6088 8.928 42.8141 8.86733 42.9728 8.746C43.1408 8.61533 43.2248 8.438 43.2248 8.214C43.2248 7.92467 43.0895 7.70067 42.8188 7.542C42.5481 7.38333 42.1095 7.206 41.5028 7.01C40.8588 6.79533 40.3361 6.59 39.9348 6.394C39.5428 6.18867 39.1975 5.89467 38.8988 5.512C38.6095 5.12 38.4648 4.61133 38.4648 3.986C38.4648 3.35133 38.6235 2.81 38.9408 2.362C39.2581 1.90467 39.6968 1.55933 40.2568 1.326C40.8168 1.09267 41.4515 0.976002 42.1608 0.976002C43.3088 0.976002 44.2235 1.24667 44.9048 1.788C45.5955 2.32 45.9641 3.07133 46.0108 4.042H43.0288C43.0195 3.74333 42.9261 3.51933 42.7488 3.37C42.5808 3.22067 42.3615 3.146 42.0908 3.146C41.8855 3.146 41.7175 3.20667 41.5868 3.328C41.4561 3.44933 41.3908 3.622 41.3908 3.846C41.3908 4.03267 41.4608 4.196 41.6008 4.336C41.7501 4.46667 41.9321 4.58333 42.1468 4.686C42.3615 4.77933 42.6788 4.90067 43.0988 5.05C43.7241 5.26467 44.2375 5.47933 44.6388 5.694C45.0495 5.89933 45.3995 6.19333 45.6888 6.576C45.9875 6.94933 46.1368 7.42533 46.1368 8.004C46.1368 8.592 45.9875 9.11933 45.6888 9.586C45.3995 10.0527 44.9748 10.4213 44.4148 10.692C43.8641 10.9627 43.2108 11.098 42.4548 11.098ZM54.6364 9.39H51.1364L50.6044 11H47.7204L51.3184 1.13H54.4824L58.0664 11H55.1684L54.6364 9.39ZM53.9504 7.29L52.8864 4.098L51.8364 7.29H53.9504ZM29.1 13.012V16.666H32.81V17.478H29.1V21.188H33.23V22H28.12V12.2H33.23V13.012H29.1ZM39.669 17.114L42.637 22H41.545L39.053 17.912L36.687 22H35.595L38.549 17.072L35.595 12.214H36.687L39.165 16.288L41.559 12.214H42.651L39.669 17.114ZM51.5685 15.028C51.5685 15.868 51.2931 16.5447 50.7425 17.058C50.1918 17.5713 49.3658 17.828 48.2645 17.828H46.2905V22H45.3105V12.214H48.2645C49.3565 12.214 50.1778 12.4707 50.7285 12.984C51.2885 13.4973 51.5685 14.1787 51.5685 15.028ZM48.2645 16.988C49.7951 16.988 50.5605 16.3347 50.5605 15.028C50.5605 14.3747 50.3785 13.88 50.0145 13.544C49.6505 13.208 49.0671 13.04 48.2645 13.04H46.2905V16.988H48.2645ZM55.1728 13.012V16.666H58.8828V17.478H55.1728V21.188H59.3028V22H54.1928V12.2H59.3028V13.012H55.1728ZM67.4218 22L64.9998 17.912H63.1938V22H62.2138V12.214H65.1538C66.2458 12.214 67.0718 12.4753 67.6318 12.998C68.2012 13.5207 68.4858 14.2067 68.4858 15.056C68.4858 15.7653 68.2805 16.372 67.8698 16.876C67.4685 17.3707 66.8712 17.6927 66.0778 17.842L68.5978 22H67.4218ZM63.1938 17.114H65.1678C65.9332 17.114 66.5072 16.9273 66.8898 16.554C67.2818 16.1807 67.4778 15.6813 67.4778 15.056C67.4778 14.412 67.2912 13.9173 66.9178 13.572C66.5445 13.2173 65.9565 13.04 65.1538 13.04H63.1938V17.114ZM77.1366 12.214V13.026H74.4206V22H73.4406V13.026H70.7106V12.214H77.1366Z" fill="white"/>
<path d="M0 0V16.1602L12.5 16.5391L14.0101 8.84647L12.5 0H0Z" fill="#3056AB"/>
<path d="M12.5 0V16.5391L25 16.1602V0H12.5Z" fill="#3056AB"/>
<path d="M10.7143 16.1602L9.64526 21.2548L10.7143 28.1165L12.5 29L13.1587 21.2548L12.5 16.1602H10.7143Z" fill="white"/>
<path d="M14.2857 16.1602H12.5V29L14.2857 28.1165L15.3547 21.2548L14.2857 16.1602Z" fill="white"/>
<path d="M17.8571 16.1602L16.8102 21.2548L17.8571 26.3494L21.4285 24.5824L22.4754 21.2548L21.4285 16.1602H17.8571Z" fill="white"/>
<path d="M3.5714 16.1602L2.56268 20.3713L3.5714 24.5824L7.14284 26.3494L8.15155 20.3713L7.14284 16.1602H3.5714Z" fill="white"/>
<path d="M0 16.1602V22.8153L3.57144 24.5824V16.1602H0Z" fill="#FF343F"/>
<path d="M7.14282 16.1602V26.3494L10.7143 28.1165V16.1602H7.14282Z" fill="#FF343F"/>
<path d="M21.4286 16.1602V24.5824L25 22.8153V16.1602H21.4286Z" fill="#FF343F"/>
<path d="M14.2858 16.1602V28.1165L17.8572 26.3494V16.1602H14.2858Z" fill="#FF343F"/>
<path d="M10.6212 6.33514L7.81317 7.27011L9.51791 9.62613L9.56771 12.5033L12.4066 11.6601L13.4427 8.61181L12.4066 4.03587L10.6212 6.33514Z" fill="white"/>
<path d="M14.1919 6.33514L12.4066 4.03587V11.6601L15.2454 12.5033L15.2952 9.62613L17 7.27011L14.1919 6.33514Z" fill="white"/>
</svg>
